<svg width="2812" height="751" viewBox="0 0 2812 751" fill="none" xmlns="http://www.w3.org/2000/svg">
<path d="M585.531 751H458.578V458.031C458.578 441.43 455.648 426.618 449.789 413.598C444.255 400.251 436.605 388.858 426.84 379.418C417.074 369.978 405.518 362.816 392.172 357.934C379.151 352.725 364.991 350.121 349.691 350.121H127.523V751H0.570312V286.156C0.570312 277.367 2.19792 269.229 5.45312 261.742C8.70833 253.93 13.2656 247.257 19.125 241.723C24.9844 235.863 31.8203 231.306 39.6328 228.051C47.4453 224.796 55.7461 223.168 64.5352 223.168H350.668C366.618 223.168 383.383 224.958 400.961 228.539C418.865 232.12 436.443 237.979 453.695 246.117C471.273 253.93 487.875 264.021 503.5 276.391C519.451 288.435 533.448 303.246 545.492 320.824C557.862 338.077 567.628 358.096 574.789 380.883C581.951 403.669 585.531 429.385 585.531 458.031V751ZM1271.08 572.777C1271.08 594.587 1268.31 614.281 1262.78 631.859C1257.24 649.112 1249.92 664.411 1240.8 677.758C1231.69 690.779 1221.11 702.009 1209.07 711.449C1197.02 720.564 1184.33 728.051 1170.98 733.91C1157.96 739.77 1144.61 744.164 1130.94 747.094C1117.6 749.698 1104.9 751 1092.86 751H863.852C846.273 751 827.068 747.908 806.234 741.723C785.401 735.538 766.033 725.447 748.129 711.449C730.551 697.126 715.74 678.734 703.695 656.273C691.977 633.487 686.117 605.655 686.117 572.777V400.902C686.117 368.35 691.977 340.844 703.695 318.383C715.74 295.596 730.551 277.204 748.129 263.207C766.033 248.884 785.401 238.63 806.234 232.445C827.068 226.26 846.273 223.168 863.852 223.168H1092.86C1125.41 223.168 1153.08 229.027 1175.86 240.746C1198.65 252.465 1217.04 267.276 1231.04 285.18C1245.04 302.758 1255.13 321.964 1261.31 342.797C1267.82 363.63 1271.08 382.999 1271.08 400.902V572.777ZM1144.12 401.879C1144.12 384.301 1139.73 371.28 1130.94 362.816C1122.15 354.353 1109.46 350.121 1092.86 350.121H864.828C847.901 350.121 835.043 354.516 826.254 363.305C817.465 371.768 813.07 384.301 813.07 400.902V572.777C813.07 589.379 817.465 602.074 826.254 610.863C835.043 619.652 847.901 624.047 864.828 624.047H1092.86C1110.11 624.047 1122.97 619.652 1131.43 610.863C1139.89 602.074 1144.12 589.379 1144.12 572.777V401.879ZM1856.53 350.121H1634.85V751H1506.43V350.121H1341.39V223.168H1506.43V50.8047H1634.85V223.168H1856.53V350.121ZM2068.93 114.77H1941.98V0.0234375H2068.93V114.77ZM2068.93 751H1941.98V223.168H2068.93V751ZM2811.12 751H2628.01L2372.15 503.93C2357.83 490.909 2351.16 474.633 2352.13 455.102C2352.78 445.987 2355.06 437.523 2358.97 429.711C2363.2 421.573 2368.9 414.737 2376.06 409.203L2607.99 222.191H2811.12L2512.29 462.914L2811.12 751ZM2319.91 751H2192.95V0.0234375H2319.91V751Z" fill="white"/>
</svg>
