<svg width="781" height="133" viewBox="0 0 781 133" fill="none" xmlns="http://www.w3.org/2000/svg">
<path d="M129.672 27.4609C129.672 31.1068 128.37 34.1667 125.766 36.6406C123.292 39.2448 120.232 40.5469 116.586 40.5469H38.4609C35.987 40.6771 33.9036 41.263 32.2109 42.3047C30.6484 43.2161 29.4766 44.3229 28.6953 45.625C27.9141 46.7969 27.5234 48.0339 27.5234 49.3359C27.5234 50.638 27.9141 51.9401 28.6953 53.2422C29.4766 54.4141 30.6484 55.5208 32.2109 56.5625C33.9036 57.474 35.987 57.9948 38.4609 58.125H93.9297C103.044 58.3854 110.531 60.5339 116.391 64.5703C122.38 68.4766 126.612 73.0339 129.086 78.2422C131.69 83.3203 132.992 88.5286 132.992 93.8672C132.992 99.0755 131.69 104.284 129.086 109.492C126.482 114.57 122.25 119.128 116.391 123.164C110.531 127.07 103.044 129.023 93.9297 129.023H92.7578C91.9766 129.154 91.1953 129.219 90.4141 129.219H16.5859C12.9401 129.219 9.8151 127.982 7.21094 125.508C4.73698 122.904 3.5 119.779 3.5 116.133C3.5 112.487 4.80208 109.427 7.40625 106.953C9.88021 104.349 12.9401 103.047 16.5859 103.047H95.1016C97.5755 103.177 99.5938 102.721 101.156 101.68C102.849 100.638 104.086 99.4661 104.867 98.1641C105.648 96.7318 106.039 95.2995 106.039 93.8672C106.039 92.9557 105.648 91.7188 104.867 90.1562C104.086 88.4635 102.849 87.0964 101.156 86.0547C99.5938 85.013 97.5755 84.4271 95.1016 84.2969H39.6328C30.5182 84.0365 22.9661 81.9531 16.9766 78.0469C11.1172 74.1406 6.88542 69.7135 4.28125 64.7656C1.80729 59.6875 0.570312 54.5443 0.570312 49.3359C0.570312 44.2578 1.8724 39.2448 4.47656 34.2969C7.08073 29.2188 11.3125 24.7266 17.1719 20.8203C23.0312 16.9141 30.5182 14.8307 39.6328 14.5703H40.8047C41.5859 14.4401 42.3672 14.375 43.1484 14.375H116.586C120.232 14.375 123.292 15.6771 125.766 18.2812C128.37 20.7552 129.672 23.8151 129.672 27.4609ZM168.344 11.25C171.859 11.3802 174.854 12.6823 177.328 15.1562C179.802 17.5 181.104 20.4297 181.234 23.9453V119.648C180.453 127.461 176.156 131.693 168.344 132.344C164.698 132.344 161.508 131.172 158.773 128.828C156.169 126.354 154.867 123.294 154.867 119.648V23.9453C154.997 20.2995 156.365 17.3047 158.969 14.9609C161.573 12.487 164.698 11.25 168.344 11.25ZM193.148 65.7422C196.924 59.6224 204.151 55.1302 214.828 52.2656L265.023 38.7891C268.539 37.7474 271.859 38.0729 274.984 39.7656C278.24 41.3281 280.388 43.8672 281.43 47.3828C282.602 50.7682 282.341 54.0885 280.648 57.3438C279.086 60.4688 276.547 62.6172 273.031 63.7891L219.516 77.6562C215.74 79.0885 213.917 81.5625 214.047 85.0781C213.917 88.5938 215.74 91.0677 219.516 92.5L273.031 106.367C276.547 107.539 279.086 109.753 280.648 113.008C282.341 116.133 282.602 119.388 281.43 122.773C280.388 126.289 278.24 128.828 274.984 130.391C271.859 132.083 268.539 132.409 265.023 131.367L214.828 117.891C204.021 114.896 196.729 110.339 192.953 104.219C189.307 98.099 187.484 91.7188 187.484 85.0781C187.484 78.4375 189.372 71.9922 193.148 65.7422ZM306.625 65.5469C309.099 59.2969 313.266 53.6979 319.125 48.75C325.115 43.6719 332.667 41.0677 341.781 40.9375H415.219C418.865 40.9375 421.924 42.2396 424.398 44.8438C427.003 47.3177 428.305 50.3776 428.305 54.0234C428.305 57.6693 427.003 60.7943 424.398 63.3984C421.924 65.8724 418.865 67.1094 415.219 67.1094H341C338.526 67.1094 336.378 68.151 334.555 70.2344C332.732 72.1875 331.299 74.5312 330.258 77.2656C329.346 80 328.891 82.6042 328.891 85.0781V119.258C328.109 127.07 323.812 131.302 316 131.953C312.354 131.953 309.164 130.781 306.43 128.438C303.826 125.964 302.523 122.904 302.523 119.258V85.2734H302.719C302.719 78.5026 304.021 71.9271 306.625 65.5469ZM461.117 38.9844C464.633 39.1146 467.628 40.4167 470.102 42.8906C472.576 45.2344 473.878 48.1641 474.008 51.6797V119.258C473.227 127.07 468.93 131.302 461.117 131.953C457.471 131.953 454.281 130.781 451.547 128.438C448.943 125.964 447.641 122.904 447.641 119.258V51.6797C447.771 48.0339 449.138 45.0391 451.742 42.6953C454.346 40.2214 457.471 38.9844 461.117 38.9844ZM444.711 13.5938C444.711 9.94792 446.273 6.82292 449.398 4.21875C452.523 1.61458 456.299 0.3125 460.727 0.3125C465.154 0.3125 468.93 1.61458 472.055 4.21875C475.18 6.82292 476.742 9.94792 476.742 13.5938C476.742 17.3698 475.18 20.5599 472.055 23.1641C468.93 25.7682 465.154 27.0703 460.727 27.0703C456.299 27.0703 452.523 25.7682 449.398 23.1641C446.273 20.5599 444.711 17.3698 444.711 13.5938ZM524.203 23.9453V98.3594C524.203 101.615 525.896 103.307 529.281 103.438H597.641C600.115 103.307 602.263 102.266 604.086 100.312C605.909 98.2292 607.211 95.8854 607.992 93.2812C608.904 90.5469 609.359 87.8125 609.359 85.0781C609.359 82.474 608.904 79.8698 607.992 77.2656C607.211 74.5312 605.909 72.1875 604.086 70.2344C602.263 68.151 600.115 67.1094 597.641 67.1094H547.641C543.995 67.1094 540.87 65.8724 538.266 63.3984C535.792 60.7943 534.555 57.6693 534.555 54.0234C534.555 50.3776 535.857 47.3177 538.461 44.8438C540.935 42.2396 543.995 40.9375 547.641 40.9375H596.859C605.974 41.0677 613.461 43.6719 619.32 48.75C625.31 53.6979 629.542 59.362 632.016 65.7422C634.62 71.9922 635.922 78.5026 635.922 85.2734C635.922 91.7839 634.62 98.2292 632.016 104.609C629.411 110.859 625.18 116.523 619.32 121.602C613.461 126.549 604.802 129.219 593.344 129.609H511.312C507.667 129.609 504.542 128.438 501.938 126.094C499.333 123.62 497.966 120.56 497.836 116.914V23.9453C497.836 20.2995 499.138 17.3047 501.742 14.9609C504.477 12.487 507.667 11.25 511.312 11.25C519.125 11.901 523.422 16.1328 524.203 23.9453ZM697.055 129.609C685.596 129.219 676.938 126.549 671.078 121.602C665.219 116.523 660.987 110.859 658.383 104.609C655.779 98.2292 654.477 91.7839 654.477 85.2734C654.477 78.5026 655.714 71.9922 658.188 65.7422C660.792 59.362 665.023 53.6979 670.883 48.75C676.872 43.6719 684.424 41.0677 693.539 40.9375H767.758C771.404 40.9375 774.464 42.1745 776.938 44.6484C779.542 46.9922 780.844 49.8568 780.844 53.2422C780.844 56.7578 779.542 59.7526 776.938 62.2266C774.464 64.5703 771.404 65.7422 767.758 65.7422H694.711C691.846 65.7422 689.307 66.7188 687.094 68.6719C685.01 70.625 683.448 73.1641 682.406 76.2891C681.495 79.4141 681.039 82.474 681.039 85.4688C681.039 88.724 681.495 91.9141 682.406 95.0391C683.448 98.1641 685.01 100.703 687.094 102.656C689.307 104.479 691.846 105.456 694.711 105.586H767.758C771.404 105.586 774.464 106.758 776.938 109.102C779.542 111.445 780.844 114.245 780.844 117.5C780.844 120.885 779.542 123.75 776.938 126.094C774.464 128.438 771.404 129.609 767.758 129.609H697.055ZM778.5 84.8828C778.5 87.3568 777.393 89.5052 775.18 91.3281C773.227 93.0208 770.753 93.8672 767.758 93.8672H703.891C700.896 93.8672 698.357 93.0208 696.273 91.3281C694.19 89.5052 693.148 87.3568 693.148 84.8828C693.148 82.5391 694.19 80.4557 696.273 78.6328C698.357 76.9401 700.896 76.0938 703.891 76.0938H767.758C770.753 76.0938 773.292 77.0052 775.375 78.8281C777.458 80.5208 778.5 82.5391 778.5 84.8828Z" fill="white" fill-opacity="0.7"/>
</svg>
