<svg width="500" height="500" viewBox="0 0 500 500" fill="none" xmlns="http://www.w3.org/2000/svg">
<rect width="500" height="500" rx="100" fill="white"/>
<path d="M421 409H346.776V232.497C346.776 222.495 345.063 213.572 341.638 205.727C338.402 197.686 333.93 190.822 328.22 185.135C322.511 179.448 315.755 175.133 307.952 172.191C300.339 169.054 292.06 167.485 283.115 167.485H153.224V409H79V128.948C79 123.653 79.9516 118.75 81.8548 114.24C83.7579 109.533 86.4224 105.512 89.8481 102.179C93.2738 98.6485 97.2705 95.9029 101.838 93.9417C106.406 91.9806 111.259 91 116.397 91H283.686C293.012 91 302.813 92.0786 313.09 94.2359C323.558 96.3932 333.835 99.9232 343.922 104.826C354.199 109.533 363.905 115.612 373.04 123.065C382.366 130.321 390.549 139.244 397.591 149.834C404.823 160.228 410.533 172.29 414.72 186.018C418.907 199.746 421 215.239 421 232.497V409Z" fill="#2B2B2B"/>
</svg>
